<?xml version="1.0" standalone="no"?>
<!DOCTYPE svg PUBLIC "-//W3C//DTD SVG 20010904//EN"
 "http://www.w3.org/TR/2001/REC-SVG-20010904/DTD/svg10.dtd">
<svg version="1.0" xmlns="http://www.w3.org/2000/svg"
 width="1600.000000pt" height="1600.000000pt" viewBox="0 0 1600.000000 1600.000000"
 preserveAspectRatio="xMidYMid meet">
<metadata>
Created by potrace 1.13, written by Peter Selinger 2001-2015
</metadata>
<g transform="translate(0.000000,1600.000000) scale(0.100000,-0.100000)"
fill="#000000" stroke="none">
<path d="M5835 14269 l-900 -400 -434 -434 -434 -433 -363 -2509 c-200 -1379
-364 -2521 -365 -2538 -2 -20 95 -257 296 -725 l298 -695 298 -1760 c165 -968
302 -1766 306 -1773 5 -6 471 -386 1038 -842 l1029 -830 1362 0 1362 0 133
103 c402 309 1916 1481 1927 1491 7 7 134 726 312 1776 l300 1765 300 700 300
700 -333 2569 -334 2568 -469 468 -469 467 -868 367 -869 366 -1261 -1 -1262
0 -900 -400z m1165 -2604 l333 -1665 667 0 667 0 333 1665 c183 916 336 1664
341 1663 4 -2 453 -300 998 -663 l990 -660 1 -1333 0 -1332 335 -670 335 -670
-668 -1337 -669 -1338 -322 -1290 c-177 -710 -327 -1308 -332 -1329 l-11 -39
-331 331 -332 332 -1335 0 -1335 0 -332 -332 -331 -331 -11 39 c-5 21 -155
619 -332 1329 l-322 1290 -669 1338 -668 1337 335 670 335 670 0 1332 1 1333
992 662 c546 364 995 662 998 662 3 1 156 -748 339 -1664z"/>
<path d="M4821 8611 c-56 -211 -313 -1253 -310 -1256 11 -11 2653 -665 2659
-658 15 16 322 1274 314 1282 -5 5 -604 157 -1331 338 l-1323 330 -9 -36z"/>
<path d="M9843 8316 c-727 -182 -1325 -334 -1329 -338 -7 -8 303 -1267 316
-1281 6 -7 2648 647 2659 658 4 5 -308 1263 -318 1281 -4 7 -453 -101 -1328
-320z"/>
</g>
</svg>
